<?xml version="1.0" encoding="UTF-8"?>
<svg id="Livello_2" data-name="Livello 2" xmlns="http://www.w3.org/2000/svg" viewBox="0 0 3226 1846.99">
  <defs>
    <style>
      .cls-1 {
        fill: #fff;
      }
    </style>
  </defs>
  <g id="Livello_1-2" data-name="Livello 1">
    <g>
      <path class="cls-1" d="M3226,1728.64c-1.29.51-1.79.89-2.29.89-94.43.03-188.85.02-283.72.02-.75-1.8-1.87-3.5-2.14-5.33-1.69-11.1-5.18-21.78-7.57-32.71-3.41-15.56-7.57-30.95-11.36-46.43-1.93-7.88-3.85-15.76-5.62-23.67-4.21-18.83-9.41-37.41-13.46-56.29-3.52-16.39-7.98-32.59-11.98-48.88-1.66-6.79-3.19-13.61-4.8-20.41-.78-3.31-1.74-4.09-5.23-4.17-2.26-.05-4.52-.01-6.79-.01-115.65,0-231.31,0-346.96,0-1.98,0-3.96-.04-5.94.01-2.89.08-3.99.98-4.68,3.83-1.72,7.06-3.4,14.14-5.12,21.2-5.49,22.55-11.2,45.04-16.4,67.66-4.38,19.08-9.45,37.99-13.83,57.06-3.7,16.08-7.79,32.06-11.65,48.1-2.55,10.6-4.94,21.25-7.47,31.85-.64,2.67-1.54,5.29-2.35,8.02h-286.62c-1.58-1.36-1.01-2.77-.62-4.04,5.96-19.82,11.35-39.79,16.68-59.78,3.31-12.43,6.96-24.77,10.4-37.16,5.02-18.05,9.97-36.11,15-54.16,3.53-12.66,7.17-25.29,10.71-37.95,4.36-15.62,8.64-31.26,12.98-46.88,3.07-11.04,6.23-22.06,9.28-33.11,4.32-15.63,8.55-31.29,12.88-46.92,3.43-12.4,6.96-24.77,10.42-37.16,4.44-15.89,8.84-31.79,13.26-47.68,3-10.77,6.02-21.54,9-32.32,4.4-15.9,8.75-31.81,13.16-47.71,3.36-12.13,6.71-24.26,10.19-36.35,5.27-18.27,10.41-36.57,15.26-54.96,3.28-12.44,6.92-24.78,10.38-37.17,4.44-15.89,8.83-31.78,13.28-47.67,3.09-11.04,6.29-22.05,9.34-33.09,4.32-15.63,8.51-31.3,12.81-46.94,3.34-12.13,6.7-24.26,10.19-36.35,5.26-18.27,10.42-36.57,15.26-54.96,2.71-10.27,5.85-20.43,8.7-30.67,3.9-14,7.7-28.04,11.58-42.05,3.36-12.13,6.8-24.23,10.16-36.36,5.15-18.59,10.23-37.2,15.38-55.8,3.36-12.13,6.67-24.27,10.2-36.35,4.7-16.1,9.18-32.27,13.52-48.48,3.33-12.42,6.98-24.76,10.43-37.15,3.89-14.01,7.7-28.04,11.58-42.05,3.36-12.13,6.8-24.23,10.16-36.36,5.15-18.59,10.22-37.21,15.39-55.79,2.7-9.7,5.6-19.34,8.3-29.04,4.05-14.55,7.92-29.14,12.02-43.67,2.96-10.5,6.4-20.86,8.64-31.55.28-1.35.79-2.8,1.63-3.85.8-1,2.1-1.96,3.33-2.2,1.91-.36,3.94-.1,5.92-.1,93.88,0,187.76,0,281.64,0,8.22,0,8.33-.02,10.69,8.3,4.06,14.25,8,28.54,11.92,42.83,3.55,12.95,6.87,25.96,10.55,38.87,5.21,18.29,10.39,36.57,15.25,54.96,3.28,12.44,6.92,24.78,10.38,37.17,4.44,15.89,8.84,31.78,13.28,47.67,3.09,11.04,6.29,22.05,9.34,33.1,4.32,15.63,8.51,31.3,12.81,46.94,3.34,12.13,6.7,24.26,10.19,36.35,5.27,18.27,10.43,36.56,15.26,54.96,2.63,10.01,5.64,19.91,8.42,29.88,3.98,14.27,7.89,28.56,11.86,42.84,3.07,11.04,6.23,22.06,9.29,33.11,5.44,19.67,10.81,39.37,16.25,59.04,3.35,12.13,6.79,24.24,10.17,36.36,4.51,16.16,9,32.32,13.52,48.47,3.47,12.39,7.01,24.75,10.45,37.15,3.89,14.01,7.7,28.04,11.58,42.05,3.36,12.13,6.8,24.23,10.16,36.36,5.15,18.59,10.22,37.21,15.39,55.8,3.44,12.39,7.01,24.75,10.46,37.14,4.43,15.89,8.8,31.8,13.23,47.69,3.46,12.39,7,24.76,10.45,37.15,3.89,14.01,7.7,28.03,11.59,42.04,3.06,11.05,6.21,22.07,9.28,33.11,4.86,17.51,9.66,35.05,14.54,52.56,3.3,11.85,6.74,23.66,10.04,35.52,4.04,14.55,7.98,29.12,12,43.68,3.43,12.4,6.93,24.78,10.38,37.17,5.02,18.05,10.01,36.1,15.04,54.14,3.07,11.04,6.21,22.07,9.27,33.11,4.86,17.51,9.65,35.05,14.54,52.56,3.23,11.57,6.6,23.1,10.02,35.01ZM2697.17,729.85c-.34,2.75-.39,4.7-.84,6.55-3.62,14.94-7.31,29.87-10.99,44.8-2.41,9.78-5.12,19.49-7.18,29.33-3.45,16.43-7.85,32.63-11.63,48.97-2.78,11.99-5.91,23.89-8.76,35.86-3.3,13.87-6.38,27.8-9.7,41.67-2.87,11.97-6.31,23.8-8.83,35.84-3.5,16.71-7.98,33.17-11.83,49.79-2.21,9.53-4.96,18.95-6.9,28.54-3.33,16.46-7.89,32.62-11.59,48.99-2.71,12-6.23,23.82-8.74,35.86-2.96,14.25-6.86,28.26-10.03,42.46-2.19,9.79-4.61,19.52-6.9,29.18.36.33.57.68.78.68,74.89.18,149.79.35,224.68.48,1.92,0,3.95.57,5.95-.83-1.03-5.04-1.91-10.21-3.15-15.29-6.03-24.72-12.17-49.41-18.26-74.12-3.81-15.47-7.61-30.95-11.38-46.44-5.82-23.91-11.65-47.82-17.4-71.75-4.71-19.58-9.24-39.2-13.99-58.77-5.47-22.55-11.09-45.07-16.65-67.6-3.82-15.47-7.66-30.94-11.44-46.42-4.11-16.84-8.18-33.7-12.23-50.56-3.53-14.68-6.97-29.39-10.54-44.06-.23-.94-1.28-1.68-2.47-3.16Z"/>
      <path class="cls-1" d="M.62.54h214.85c1.59,2.39,3.44,4.84,4.95,7.49,7.93,13.93,15.74,27.92,23.66,41.86,8.48,14.91,17.07,29.76,25.55,44.67,7.92,13.93,15.72,27.93,23.64,41.87,8.48,14.91,17.07,29.75,25.55,44.66,7.92,13.93,15.72,27.93,23.64,41.86,8.48,14.91,17.07,29.76,25.55,44.67,7.92,13.93,15.72,27.93,23.64,41.87,8.48,14.91,17.07,29.75,25.55,44.67,7.92,13.93,15.72,27.93,23.64,41.86,8.48,14.91,17.09,29.74,25.55,44.67,8.32,14.68,16.44,29.46,24.77,44.13,7.91,13.94,15.99,27.78,23.96,41.69,5.45,9.52,10.82,19.08,16.24,28.61,8.76,15.4,17.54,30.78,26.28,46.19,5.69,10.03,11.28,20.11,17,30.11,1.35,2.36,2.04,5.35,5.09,6.38.18-.15.4-.25.48-.42.12-.25.19-.54.19-.82,0-1.7-.01-3.39-.01-5.09,0-208.4,0-416.79,0-625.19,0-.57,0-1.13,0-1.7,0-.28,0-.57,0-.85,0-.28.01-.57.03-.85.02-.28.02-.57.08-.84.06-.25.2-.49.34-.81,1.89-1.67,4.25-.9,6.4-.91,38.17-.05,76.35-.04,114.52-.04h74.65c2.8,0,5.59,0,8.8,0,.22,1.69.5,3.01.55,4.34.08,2.26.02,4.52.02,6.79,0,341.58,0,683.16,0,1024.73v9.63c-1.18,1.95-2.66,1.71-4.03,1.73-1.98.03-3.96.01-5.94.01-65.88,0-131.77,0-197.65,0h-8.68c-3.4-4.95-6.17-10.14-9.07-15.23-9.46-16.61-18.86-33.27-28.26-49.92-5.66-10.04-11.25-20.13-16.92-30.16-6.09-10.77-12.28-21.48-18.36-32.25-6.08-10.77-12.04-21.61-18.13-32.38-9.26-16.4-18.59-32.77-27.89-49.16-5.27-9.29-10.54-18.59-15.8-27.89-9.55-16.89-19.12-33.76-28.62-50.68-6.06-10.78-11.95-21.66-18.05-32.43-8.59-15.17-17.32-30.26-25.92-45.43-5.55-9.78-10.95-19.65-16.49-29.43-6.23-11.01-12.58-21.96-18.8-32.98-6.08-10.77-12.04-21.61-18.12-32.38-9.27-16.4-18.61-32.76-27.89-49.16-5.68-10.03-11.25-20.13-16.93-30.15-6.24-11.01-12.58-21.96-18.83-32.96-5.83-10.27-11.61-20.57-17.36-30.88-5.89-10.56-11.67-21.18-17.61-31.7-.92-1.63-2.43-2.92-4.55-5.39v639.18c-.71.66-.9.89-1.13,1.03-.22.14-.5.27-.75.27-66.45.04-132.9.07-199.34.09-1.09,0-2.18-.18-3.02-.25-.41-.48-.63-.68-.77-.92-.14-.23-.28-.5-.28-.75-.01-348.05-.01-696.09-.01-1045.04Z"/>
      <path class="cls-1" d="M1768.59,1728.98c-9.89.97-82.58,1.3-121.98.61-1.07-.02-2.29.37-3.23-.78-.11-.11-.38-.28-.5-.52-.11-.24-.07-.55-.09-.84-.02-.28-.05-.56-.06-.85-.01-.57-.01-1.13-.01-1.7,0-.28,0-.57,0-.85s0-.57,0-.85v-1.7c0-109.43,0-218.87,0-328.3,0-.57,0-1.13,0-1.7,0-.28,0-.57,0-.85,0-.28,0-.57,0-.85,0-.28,0-.57-.03-.85-.03-.28-.06-.56-.13-.83-.06-.24-.17-.47-.48-1.28-.96,2.14-1.87,3.84-2.51,5.63-6.59,18.45-13.12,36.92-19.7,55.37-7.24,20.3-14.56,40.57-21.79,60.88-7.22,20.3-14.25,40.67-21.59,60.93-8.68,23.94-17.37,47.88-25.63,71.98-5.17,15.09-10.99,29.96-16.4,44.97-4.84,13.43-9.5,26.92-14.28,40.37-.27.76-.95,1.37-1.68,2.38-1.46.07-3.12.23-4.77.23-19.23.02-38.46.02-57.69,0-5.05,0-5.04-.06-6.64-4.58-7.11-20.05-14.19-40.1-21.34-60.13-7.34-20.56-14.83-41.07-22.11-61.66-8.3-23.48-16.39-47.04-24.65-70.54-6.13-17.43-12.31-34.83-18.6-52.2-9.25-25.53-18.53-51.04-27.23-76.76-2.05-6.06-4.59-11.95-6.83-17.74-.56-.09-.88-.18-.91-.13-.13.24-.25.53-.25.8-.06,113.67-.11,227.34-.17,341.02,0,.26-.14.52-.36,1.31-1.07.18-2.37.59-3.67.59-39.31.03-78.61.03-117.92,0-1.07,0-2.29.35-3.15-.69-1.1-.85-.71-2.08-.73-3.14-.93-51.23-.44-630.33.52-640.3.21-.19.39-.42.63-.57.22-.13.5-.25.76-.25,44.11-.04,88.22-.07,132.33-.08.81,0,1.62.23,2.79.41.72,1.72,1.55,3.46,2.19,5.28,7.51,21.39,14.68,42.9,22.55,64.15,10.02,27.04,19.42,54.29,29.26,81.39,7.35,20.25,14.3,40.65,21.51,60.96,8.43,23.74,16.82,47.49,25.44,71.16,9.29,25.51,18.39,51.09,27.34,76.72,5.54,15.85,11.59,31.52,16.87,47.47.14.43.75.71,1.15,1.07.46-.23,1.21-.35,1.33-.7,8.57-23.68,17.16-47.35,25.6-71.08,9.37-26.37,18.4-52.86,27.97-79.16,5.75-15.78,11.14-31.69,17.03-47.41,9.53-25.43,18.35-51.11,27.71-76.61,9.07-24.69,17.33-49.68,26.49-74.34,6.82-18.37,13.08-36.95,20.02-55.28,1.36-3.6,1.79-3.96,5.39-4.05,1.7-.04,3.39,0,5.09,0,39.31,0,78.61,0,117.92,0h7.76c.78.71,1.03.87,1.18,1.1.14.21.25.5.25.75.01,214.03.01,428.06.01,642.59Z"/>
      <path class="cls-1" d="M1386.57,705.21c.68-13.95.73-27.52,2.17-40.95,1.5-13.9,3.4-27.78,5.91-41.6,3.52-19.36,8.36-38.33,14.41-56.95,6.95-21.36,15.71-42.05,26.43-61.86,10.34-19.11,22.28-37.16,35.83-54.12,9.89-12.38,20.85-23.84,32.67-34.37,18.37-16.36,38.44-30.36,60.87-40.67,16.08-7.39,32.59-13.47,50.16-16.52,8.02-1.39,16.03-2.58,24.12-3.5,7.32-.83,14.59-1.16,21.9-1.1,9.28.08,18.42,1.53,27.61,2.77,10.61,1.43,20.9,3.9,31.13,6.95,6.19,1.85,12.22,4.1,18.21,6.44,15.51,6.06,29.97,14.16,43.76,23.45,18.57,12.52,35.41,27.13,50.31,43.82,17.87,20.01,33.11,41.92,45.97,65.53,13.63,25.01,23.86,51.34,32.1,78.5,4.06,13.4,7.25,27.03,9.48,40.88,1.47,9.12,3.43,18.17,4.62,27.33,1.08,8.36,1.39,16.82,2.1,25.23,1.09,12.93,1.87,25.88,1.36,38.86-.44,11.26-.52,22.58-1.85,33.74-2.32,19.46-5.1,38.85-9.44,58.03-4.59,20.29-10.84,39.97-18.16,59.39-4.26,11.3-9.1,22.36-14.53,33.13-10.01,19.89-21.57,38.88-35.22,56.49-10.55,13.62-21.88,26.63-34.68,38.22-15.06,13.65-31.29,25.71-48.97,35.87-13.22,7.6-27.14,13.59-41.49,18.41-10.85,3.64-22.03,6.31-33.49,7.84-12.28,1.65-24.53,3.26-36.94,2.87-9.26-.29-18.42-1.64-27.61-2.81-12.32-1.56-24.16-4.8-35.9-8.56-16.39-5.25-31.81-12.66-46.53-21.54-23.39-14.1-43.83-31.79-61.99-52.05-12.98-14.48-24.54-30.12-34.69-46.76-9.09-14.89-17.11-30.33-24.04-46.35-7.46-17.27-13.69-34.92-18.77-53.04-2.8-9.99-5.27-20.05-7.28-30.19-1.69-8.5-3.76-16.96-4.45-25.66-.29-3.62-1.1-7.2-1.51-10.82-.41-3.62.11-7.36-1.44-10.84-.21-.48-.1-1.12-.13-1.68-.68-14.08-1.36-28.15-2.02-41.82ZM1795.69,706.07c.06,0,.12,0,.18,0-.2-8.2.3-16.49-.77-24.57-1.2-9.14-2.45-18.29-4.32-27.38-4.45-21.67-12.24-41.99-23.15-61.12-5.17-9.06-11.3-17.53-18.33-25.26-9.72-10.71-20.69-19.82-33.28-27.16-15.61-9.1-32.5-13.77-50.21-15.52-12.09-1.19-24.14.27-36.02,3.05-18.4,4.3-34.95,12.47-49.33,24.58-16.56,13.94-30.01,30.49-39.56,50.1-6.41,13.16-11.89,26.59-15.37,40.85-2.13,8.73-3.93,17.45-5.27,26.35-.93,6.18-.57,12.42-1.69,18.46-1.2,6.48-.82,12.91-1.08,19.37-.23,5.66.95,11.22,1.18,16.81.53,12.98,2.6,25.7,5.57,38.28,5.14,21.75,13.54,42.23,25.63,61.03,9.85,15.32,22.13,28.61,37.01,39.18,23.25,16.52,39.96,20.17,60.76,22.72,10.64,1.3,21.39.17,31.95-1.86,3.02-.58,6.02-1.3,8.98-2.11,18.5-5.08,34.76-14.35,49.05-27.01,13.42-11.89,24.15-25.97,32.64-41.77,9.77-18.16,16.7-37.26,20.64-57.58,2.63-13.56,4.66-27.11,4.78-40.93.02-2.83,0-5.66,0-8.48Z"/>
      <path class="cls-1" d="M879.06,364.09c7.92-.87,118.28-1.17,133.42-.43.22,1.21.61,2.51.68,3.82.12,2.26.03,4.52.03,6.78,0,137.97,0,275.94,0,413.91,0,4.81,0,9.61.05,14.42.17,14.78,3.59,28.86,9.06,42.53,5.74,14.34,14.23,26.75,25.43,37.39,9.78,9.29,21.19,15.82,34,19.72,5.32,1.62,10.84,2.89,16.55,2.78,7.87-.15,15.68.14,23.53-1.62,10.35-2.32,19.68-6.68,28.32-12.51,13.36-9,23.52-21.07,30.98-35.21,6.17-11.68,10.27-24.13,12.44-37.31,1.44-8.72,1.5-17.39,1.51-26.1.04-139.67.03-279.33.04-419,0-3.05-.25-6.13.14-8.69,2-1.62,3.74-1.17,5.37-1.19,58.91-.68,119.97-.34,127.86.71,1.1.83.7,2.06.71,3.12.05,5.65.03,11.31.03,16.96,0,146.45,0,292.9,0,439.35,0,6.22-.06,12.44-.11,18.66-.12,12.41-2.26,24.52-4.65,36.68-2.39,12.17-6.15,23.84-10.38,35.42-4.55,12.44-10.65,24.1-17.27,35.54-11.87,20.52-27.72,37.66-45.18,53.41-10.06,9.07-21.25,16.75-32.95,23.51-13.88,8.01-28.43,14.7-43.8,19.44-12.06,3.71-24.28,6.55-36.82,8.29-12.85,1.77-25.68,3.22-38.64,2.82-9.82-.3-19.56-1.49-29.31-2.84-13.1-1.82-25.89-4.74-38.42-8.83-23.18-7.56-44.62-18.68-63.96-33.43-19.85-15.15-37.06-33.01-50.95-53.89-15.07-22.67-25.55-47.39-31.92-73.76-1.89-7.84-3.02-15.96-4.22-24.01-1.72-11.55-1.5-23.07-1.51-34.6-.08-119.03-.05-238.05-.05-357.08,0-31.95,0-63.9,0-95.84,0-2.81,0-5.62,0-8.92Z"/>
      <path class="cls-1" d="M2453.92,363.78c-1.38,5.61-2.49,10.76-3.92,15.81-7.52,26.66-15.47,53.21-22.58,79.98-6.39,24.07-13.54,47.94-19.69,72.08-4.21,16.54-9.37,32.83-13.96,49.27-4.97,17.79-9.75,35.63-14.66,53.43-3.42,12.41-6.94,24.8-10.39,37.2-3.89,14.02-7.74,28.05-11.64,42.06-2.48,8.9-5.08,17.76-7.54,26.66-4.33,15.64-8.55,31.32-12.88,46.96-3.43,12.41-6.99,24.78-10.44,37.18-5.02,18.06-9.98,36.14-14.99,54.21-3.44,12.41-6.93,24.8-10.38,37.2-5.02,18.06-10.02,36.13-15.04,54.19-3.37,12.13-6.79,24.25-10.16,36.39-3.44,12.4-6.82,24.82-10.3,37.22-.36,1.28-1.17,2.44-1.89,3.89-49.96,0-99.64,0-149.44,0-2.57-9.06-5.06-17.62-7.43-26.21-5.35-19.43-10.61-38.88-15.97-58.3-3.42-12.41-6.99-24.78-10.44-37.18-5.02-18.06-9.97-36.14-14.98-54.21-3.44-12.41-6.94-24.8-10.39-37.2-5.02-18.06-9.99-36.14-15.04-54.2-3.24-11.59-6.67-23.12-9.87-34.72-5.28-19.15-10.42-38.35-15.68-57.51-3.33-12.14-6.79-24.26-10.16-36.39-5.1-18.33-10.15-36.67-15.26-55-3.45-12.4-6.98-24.78-10.44-37.18-4.44-15.9-8.81-31.82-13.26-47.72-3.25-11.58-6.64-23.13-9.89-34.72-4.9-17.52-9.74-35.05-14.59-52.59-5.37-19.42-10.72-38.84-16.05-58.27-.14-.52-.02-1.12-.02-2.04,1-.23,2.04-.67,3.08-.67,47.78-.03,95.57-.03,143.35-.02,1.1,0,2.21.17,3.03.24.45.44.73.6.84.84.23.49.42,1.01.55,1.54,37.66,149.51,75.32,299.01,112.99,448.52.06.24.35.44.56.63.21.18.45.32,1.06.74,1.38-5.03,2.8-9.9,4.04-14.81,7.95-31.47,15.91-62.94,23.78-94.43,9.23-36.92,18.35-73.87,27.59-110.79,9.03-36.1,18.06-72.21,27.24-108.27,7.04-27.66,14.35-55.24,21.43-82.89,3.12-12.2,5.95-24.48,8.91-36.72.13-.55.16-1.12.32-1.65.53-1.77,1.84-2.83,3.67-2.93,1.13-.06,2.26-.03,3.39-.03,45.8,0,91.61,0,137.41.02,1.91,0,3.82.24,6.11.39Z"/>
      <path class="cls-1" d="M864.76,1084.7h141.12c.73,1.73,1.68,3.43,2.18,5.25,4.89,17.5,9.73,35.02,14.55,52.54,3.78,13.75,7.43,27.52,11.25,41.26,2.55,9.16,5.39,18.23,7.92,27.39,4.24,15.36,8.28,30.78,12.5,46.15,3.41,12.4,7,24.75,10.44,37.14,5.02,18.04,9.95,36.11,14.97,54.15,2.85,10.24,5.84,20.43,8.69,30.66,3.9,14,7.74,28.02,11.61,42.03,3.43,12.4,6.76,24.82,10.32,37.18,5.26,18.27,10.44,36.56,15.25,54.95,2.62,10.01,5.63,19.91,8.41,29.87,3.98,14.27,7.87,28.56,11.87,42.83,3.24,11.57,6.68,23.09,9.88,34.68,5.28,19.13,10.39,38.32,15.67,57.45,2.83,10.24,5.91,20.41,8.81,30.64,1.89,6.66,3.65,13.35,5.58,20.47-1.64.11-3.01.28-4.38.28-41.84.01-83.68.01-125.53.01-.85,0-1.7.03-2.54-.01-2.38-.13-3.63-1.1-4.19-3.37-1.73-7.06-3.45-14.12-5.12-21.2-1.86-7.89-3.6-15.82-5.51-23.7-3.82-15.75-7.72-31.49-11.57-47.23-1.32-5.39-2.6-10.8-3.9-16.19-1.16-.24-1.96-.55-2.75-.55-56.8-.02-113.6-.02-170.77-.02-.78,1.91-1.82,3.62-2.17,5.46-3.34,17.89-8.62,35.31-12.55,53.06-3.5,15.82-7.62,31.51-11.51,47.25-.53,2.13-1.34,4.19-2.09,6.46-44.77,0-89.12,0-133.46-.03-.49,0-.98-.44-1.79-.84-.52-3.58,1.27-6.97,2.23-10.28,7.24-24.97,13.89-50.11,21.05-75.1,6.92-24.19,13.52-48.47,20.26-72.71,7.41-26.67,14.8-53.33,22.23-79.99,4.95-17.77,9.93-35.54,14.82-53.34,4.89-17.79,9.66-35.61,14.56-53.4,3.41-12.4,6.97-24.76,10.42-37.15,4.43-15.88,8.82-31.78,13.25-47.67,3.46-12.39,6.97-24.76,10.42-37.15,3.9-14,7.74-28.02,11.62-42.03,3.43-12.4,6.85-24.79,10.3-37.18,4.49-16.16,8.99-32.32,13.51-48.47,3.47-12.38,6.98-24.76,10.49-37.13,1.14-4,2.34-7.98,3.64-12.41ZM991.08,1482.52c-18.15-74.73-36.33-149.56-54.81-225.6-1.12,3.22-1.93,5.28-2.54,7.4-.54,1.87-.81,3.82-1.28,5.72-2.93,11.94-6.23,23.8-8.73,35.83-3.35,16.15-7.89,32.02-11.28,48.16-2.41,11.48-5.6,22.79-8.07,34.27-3.23,15.01-7.34,29.83-10.96,44.76-4.01,16.54-7.88,33.11-11.8,49.64.64.29,1.14.72,1.64.72,35.31.03,70.63.03,105.94,0,.49,0,.98-.45,1.89-.9Z"/>
      <path class="cls-1" d="M1843.26,1084.71c2.99-.06,5.2-.15,7.41-.15,71.81,0,143.62-.04,215.43.02,29.23.03,54.88,10.15,77.59,28.21,3.3,2.63,6.58,5.31,9.68,8.17,12.08,11.18,22.09,24.05,30.67,38.05,10.93,17.82,18.52,37.03,24.03,57.16,2.81,10.28,4.63,20.74,6.43,31.21,1,5.79,1.42,11.71,1.75,17.59.33,5.92.25,11.87.27,17.81.02,4.81-.06,9.61-.1,14.42-.09,9.57-1.73,18.96-3.06,28.41-2.24,15.91-6.67,31.16-12.16,46.17-6.02,16.46-14.26,31.73-24.8,45.74-4.91,6.53-9.91,12.99-15.75,18.75-19.48,19.19-42.43,32.23-69.15,38.14-7.91,1.75-16.05,2.53-24.29,2.48-29.12-.19-58.24-.07-87.36-.07-2.81,0-5.61,0-7.92,0-1.96,1.2-1.71,2.68-1.73,4.05-.04,2.26-.01,4.52-.01,6.78,0,77.18,0,154.36,0,231.54,0,3.08,0,6.16,0,9.62-1.24.31-2.25.78-3.27.78-40.15.04-80.29.03-120.44.01-.8,0-1.61-.24-2.26-.34-.32-.36-.54-.55-.68-.79-.14-.23-.27-.5-.27-.75-.01-213.99-.01-427.97-.01-643ZM1970.75,1343.51c1.13.27,1.66.5,2.19.5,23.44.02,46.87.15,70.31-.08,4.68-.05,9.46-1.08,14-2.35,16.71-4.7,27.21-16.15,33.49-31.87,5.23-13.1,5.17-33.59,1.44-45.64-7.19-23.24-25.73-36.47-48.85-36.7-22.59-.22-45.18-.06-67.77-.04-1.61,0-3.22.22-4.74.34-.79,7.71-.83,107.99-.06,115.85Z"/>
      <path class="cls-1" d="M0,1589.48c34.08-27.6,67.97-55.06,101.99-82.62,2.85,1.87,3.36,4.78,4.3,7.22,3.65,9.51,8.85,18.14,14.4,26.62,9.47,14.48,21.99,25.79,37.07,33.87,10.37,5.56,21.61,9.44,33.77,9.23,5.37-.09,10.77.26,16.11-.16,14.94-1.18,26.91-7.6,34.61-20.85,2.12-3.64,3.47-7.64,4.16-11.83.41-2.49.89-4.96,1.26-7.45.16-1.11.26-2.26.16-3.37-1.2-13.45-4.81-25.74-14.85-35.7-7.52-7.46-16.05-13.3-25.32-18.08-8.97-4.63-18.2-8.8-27.43-12.9-10.5-4.66-21.07-9.2-31.73-13.47-8.88-3.56-17.45-7.75-25.92-12.16-16.78-8.73-32.55-18.87-46.63-31.7-18.02-16.43-31.21-35.9-40.31-58.48-3.9-9.68-6.27-19.72-9.26-29.62-1.05-3.48-.22-7.36-2.02-10.72-.17-6.76-2.12-13.31-2.13-20.12,0-5.59-1-11.18-1.24-16.79-.23-5.36-.44-10.78.05-16.11.86-9.49.83-19.06,2.71-28.47.82-4.1,1.05-8.33,1.66-12.49,1.47-10.04,4.2-19.7,7.14-29.33,4.87-15.92,11.66-31.02,20.72-44.97,4.59-7.06,9.45-14,15.41-20.11,9.68-9.91,19.45-19.63,31.11-27.3,15.41-10.14,32.23-17.08,49.96-21.6,13.94-3.56,28.29-4.35,42.73-4,13.29.33,26.18,2.6,38.94,6.13,24.49,6.77,46.24,18.85,65.98,34.51,13.72,10.89,26.22,23.14,36.59,37.39,1.82,2.5,3.93,4.8,5.76,7.3,2.31,3.17,4.46,6.45,6.92,10.02-8.63,11.85-18.06,23-27.08,34.46-9.23,11.73-18.65,23.32-27.9,35.04-9.04,11.46-17.83,23.12-27.37,34.38-1.16-.94-1.9-1.36-2.4-1.98-5.71-6.96-11.03-14.3-17.16-20.87-10.05-10.76-21.44-19.98-34.8-26.44-9.83-4.76-20.32-6.95-31.14-5.39-13.32,1.93-23.04,9.29-27.17,22.25-2.6,8.16-4.17,16.52-2.45,25.58,2.13,11.27,6.62,20.71,14.77,28.64,5.5,5.35,11.57,9.75,18.23,13.57,12.95,7.43,26.71,12.96,40.43,18.69,17.87,7.47,35.73,15,52.71,24.41,18.84,10.45,36.18,22.89,50.71,38.95,7.77,8.58,14.6,17.92,20.32,27.95,9.49,16.65,16.34,34.39,20.54,53.13,2.58,11.51,4.03,23.15,5.48,34.84,1.54,12.41,1.15,24.77,1.4,37.15.26,12.97-1.07,25.78-3.17,38.6-2,12.21-4.94,24.13-8.91,35.78-6.85,20.11-16.59,38.81-30.2,55.12-15.1,18.09-32.63,33.46-54.03,44.07-12.88,6.39-26.25,11.39-40.2,14.56-9.81,2.23-19.76,4.27-29.96,4.15-3.67-.04-7.35-.01-11.03.09-21.61.59-42.51-3.39-62.66-10.84-19.6-7.25-37.75-17.36-54.36-30.13-13.28-10.21-25.04-22.06-35.98-34.63-11.09-12.74-20.39-26.83-28.75-41.58-5.14-9.07-9.24-18.59-13.69-27.97-.35-.74-.41-1.61-.86-3.49Z"/>
      <path class="cls-1" d="M489.4,1227.31c-13.28,0-26.55,0-39.82,0s-27.14,0-40.71,0c-13.21,0-26.43.02-38.99-.02-1.83-1.84-1.34-3.34-1.35-4.68-.73-57.34-.42-127.81.58-137.29.16-.15.35-.39.59-.51.23-.12.53-.16.8-.16,120.44-.04,240.88-.07,361.32-.1,1.38,0,2.76,0,3.47,0,2.15,1.33,1.8,2.84,1.8,4.18.01,44.95,0,89.91,0,134.86,0,.84-.11,1.68-.16,2.49-1.89,1.93-4.27,1.19-6.43,1.2-35.06.04-70.12.03-105.18.03-2.78,0-5.57-.11-7.73.1-.78.68-1.06.83-1.19,1.07-.13.23-.12.54-.14.82-.05.56-.08,1.13-.1,1.69-.02.56-.01,1.13-.01,1.7,0,164.55,0,329.1-.01,493.64,0,.28-.02.57-.03.85-.01.28.02.58-.07.84-.08.25-.3.46-.46.68-.18.21-.33.49-.56.63-.23.13-.54.17-.81.17-40.43.03-80.85.06-121.28.06-.51,0-1.01-.33-1.52-.51-.21-.19-.47-.36-.61-.59-.13-.22-.19-.52-.19-.78-.08-166.24-.15-332.48-.23-498.73,0-.23-.26-.46-.97-1.64Z"/>
      <path class="cls-1" d="M2342.75,301.55c32.66-99.37,65.13-198.15,97.69-297.2,7.31-.6,14.34-.23,21.36-.29,6.79-.07,13.57-.01,20.36-.01s14.14-.09,21.21.03c6.73.11,13.5-.51,19.92.34.62.78,1.13,1.16,1.3,1.66,35.04,106.5,70.05,213,105.21,319.96-1.71.17-3.06.41-4.43.43-33.85.64-67.78.33-75.74-.7-5.22-18.16-10.49-36.49-15.67-54.48-.67-.38-.91-.53-1.16-.65-.25-.12-.51-.33-.76-.33-32.52-.03-65.03-.04-97.55-.03-.82,0-1.65.25-2.94.46-3.46,9.02-5.56,18.6-8.38,27.96-2.74,9.1-5.07,18.33-7.9,27.11-7.24.87-133.55.95-142.67.12-22.33-38.72-44.83-77.74-67.34-116.78-5.65-.64-10.98-.16-15.94-.32-2.19,1.84-1.55,3.93-1.55,5.81-.03,34.21-.02,68.42-.03,102.64,0,2.78-.03,5.55-.04,7.87-.68.65-.86.89-1.1,1.03-.22.13-.51.23-.76.23-23.47.02-46.93.03-70.4,0-.51,0-1.01-.35-1.52-.54-.18-.22-.39-.42-.52-.67-.13-.23-.24-.51-.24-.77,0-106.03,0-212.06.03-318.09,0-.49.39-.99.6-1.51,1.45-1.21,3.2-.73,4.83-.73,41.28-.03,82.56-.25,123.84.06,29.64.22,53.27,12.73,70.62,36.81,10.94,15.19,16.99,32.22,19.01,50.82.61,5.62,1.4,11.2,1.1,16.85-1.12,21.16-5.94,41.21-18.3,58.87-8.56,12.23-19.09,22.25-32.84,28.56-1.73.79-3.31,1.9-5.03,2.9.33,1.13.38,2.01.8,2.66,20.83,32.87,41.68,65.73,62.57,98.57.25.4.91.55,2.36,1.38ZM2188.26,76.1c-.25,1.6-.48,2.43-.48,3.26-.02,20.06-.03,40.13.02,60.19,0,1.02.52,2.04.83,3.19,14.47,0,28.59.2,42.7-.05,15.82-.29,28.22-12.34,29.37-28.22.27-3.65.2-7.35-.02-11-.42-7.34-3.64-13.53-8.51-18.88-5.89-6.47-13.62-8.91-22.02-9.07-12.71-.24-25.43-.08-38.15-.04-1.08,0-2.15.34-3.75.62ZM2482.05,91.97c-.89,2.66-1.69,4.75-2.3,6.89-9.6,33.8-19.17,67.6-28.71,101.42-.27.95-.03,2.04-.03,3.49,21.08,0,41.68,0,62.28-.04.43,0,.86-.6,1.59-1.13-4.33-14.98-8.73-30.06-13.05-45.18-5.87-20.54-11.66-41.11-17.55-61.64-.36-1.24-1.33-2.31-2.23-3.81Z"/>
      <path class="cls-1" d="M2063.75,90.04c-21.71,12.14-42.59,23.82-63.9,35.73-.81-.97-1.8-1.87-2.44-2.97-3.15-5.35-6.27-10.67-10.32-15.45-12.18-14.36-27.41-22.79-46.07-25.84-16.89-2.76-32.5.37-47.36,8.11-17.04,8.88-28.31,22.99-35.23,40.65-4.78,12.19-7.11,24.96-6.51,38.03.84,18.33,5.55,35.6,16.54,50.64,11.24,15.38,25.95,25.49,44.84,29.49,34.07,7.21,64.6-8.51,80.21-34.04.58-.95,1.15-1.92,1.96-3.28-7.61-.99-14.91-.37-22.18-.48-7.07-.11-14.13-.02-21.2-.03-7.29-.01-14.58.05-22.18-.05-.23-1.59-.49-2.64-.51-3.69-.6-22.14-.25-50.92.68-58.27.48-.23.96-.66,1.44-.66,48.9-.01,97.81,0,146.71.05.48,0,.96.45,1.44.69.78,6.17.92,21.19.24,26.05-.23,1.67-.6,3.34-.66,5.02-.49,15.64-4.13,30.68-9.26,45.32-10.2,29.14-27.16,53.82-51.03,73.44-18.58,15.27-39.64,25.55-63.53,29.8-10.03,1.79-20.05,3.26-30.22,2.71-22.81-1.24-44.37-6.92-64.34-18.3-11.11-6.33-21.25-13.94-30.46-22.72-10.26-9.78-18.85-20.98-26.22-33.1-10.64-17.5-17.5-36.49-21.7-56.44-1.33-6.31-1.66-12.84-2.33-19.28-.49-4.76-1.16-9.54-1.1-14.31.41-31.19,6.94-60.88,22.43-88.23,16.3-28.78,38.82-51.08,68.87-65.38,12-5.71,24.6-9.36,37.78-11.53,12.41-2.04,24.86-2.25,37.14-.87,23.3,2.61,44.74,10.89,64.07,24.32,18.1,12.58,32.96,28.26,44.37,47.14,3.35,5.54,6.41,11.26,10.06,17.71Z"/>
      <path class="cls-1" d="M1605.33.19c32.79-.15,61.85,10.38,87.57,30.53,22.98,18,39.3,40.9,50.35,67.82,5.49,13.37,9.21,27.2,11.15,41.4,1.52,11.14,2.61,22.43,1.84,33.76-1.81,26.42-7.97,51.7-20.51,75.13-16.02,29.94-38.89,53.13-69.55,68.15-14.24,6.98-29.29,11.33-45.16,12.98-6.19.65-12.33,1.35-18.54,1.1-22.85-.94-44.44-6.56-64.52-17.63-11.69-6.44-22.3-14.39-31.87-23.63-10.39-10.04-19.08-21.47-26.55-33.88-10.28-17.07-16.84-35.54-21.06-54.88-1.32-6.03-1.71-12.26-2.38-18.42-.52-4.75-1.17-9.54-1.15-14.3.19-31.48,6.61-61.48,22.14-89.14,16.33-29.09,39.02-51.65,69.38-65.98,11.73-5.53,24.06-9.3,36.95-11.38,7.3-1.18,14.56-1.52,21.91-1.64ZM1604.86,250.2c5.71-.19,11.25-.48,16.85-1.66,13.33-2.82,24.88-8.79,34.74-18.07,19.32-18.18,26.57-41.35,26.56-67.06,0-9.2-1.62-18.44-4.45-27.37-4.43-14-11.66-26.33-22.57-36.1-11.34-10.16-24.58-16.34-39.94-18.58-9.75-1.42-19.18-.9-28.43,1.39-22.6,5.58-39.41,19.03-49.78,39.87-8.59,17.25-11.78,35.53-9.08,54.87,1.61,11.57,4.49,22.57,10.2,32.78,14.42,25.81,36.46,39,65.9,39.95Z"/>
      <path class="cls-1" d="M3119.93,4.39c.42.75.95,1.42,1.2,2.18,34.97,106.25,69.92,212.51,104.84,318.69-.69.48-1.14,1.08-1.59,1.08-25.7.04-51.41.04-77.58.04-.77-2.05-1.69-4.04-2.29-6.13-4.53-15.66-9-31.33-13.5-46.99-.22-.78-.54-1.54-.79-2.23-6.79-1.01-86.67-1.34-102.23-.4-.67,1.83-1.55,3.84-2.15,5.94-4.59,15.93-9.13,31.88-13.71,47.81-.14.5-.53.94-.8,1.4-6.7.89-71.05,1-79.78.09,1.38-7.13,4.16-13.8,6.38-20.59,18.61-56.91,37.41-113.75,56.13-170.62,13.01-39.51,25.97-79.04,38.96-118.56,1.22-3.72,2.47-7.43,3.8-11.45,1.54-.22,2.88-.58,4.22-.58,25.44-.03,50.89-.02,76.33,0,.82,0,1.64.2,2.56.33ZM3048.12,203.15c6.79.97,34.56,1.3,59.16.67,1.08-.03,2.14-.33,3.35-.53,0-1.11.19-1.98-.03-2.74-10.3-36.07-20.64-72.12-31.3-109.32-1.16,2.67-2.01,4.14-2.45,5.73-9.77,34.89-19.5,69.78-29.2,104.69-.12.42.3,1,.47,1.5Z"/>
      <path class="cls-1" d="M1303.72,200.45v42.44c0,13.85,0,27.7,0,41.54,0,13.77.01,27.54-.01,40.98-1.18.55-1.66.96-2.14.96-23.45.02-46.91,0-70.36-.04-.48,0-.96-.43-1.44-.66-.22-.49-.62-.99-.62-1.48-.02-105.98,0-211.96.03-317.94,0-.49.41-.98.64-1.49,1.76-1.22,3.78-.67,5.69-.68,41.26-.03,82.53-.32,123.79.09,26.53.26,48.42,11.05,65.67,31.38,12.01,14.15,19.15,30.53,22.35,48.52,1.91,10.76,2.6,21.66.91,32.79-1.66,10.97-4.16,21.52-8.83,31.52-11.77,25.2-30.77,41.98-57.94,48.99-8.21,2.12-16.55,3.17-25.07,3.1-14.41-.12-28.83-.03-43.24-.03-2.8,0-5.61,0-9.44,0ZM1304.76,133c4.52.63,9.28.27,14.02.28,10.43.03,20.86-.1,31.28-.09,13.78.01,27.37-12.32,26.85-27.94-.06-1.69-.03-3.39-.17-5.07-.88-10.22-6.39-17.28-15.47-21.44-4.84-2.22-10.14-3.27-15.54-3.28-12.4-.03-24.8-.03-37.2.01-1.34,0-2.67.36-3.69.51-.5.99-.96,1.48-.96,1.97-.06,17.75-.08,35.5-.06,53.25,0,.48.49.97.94,1.79Z"/>
      <path class="cls-1" d="M2717.35,75.44c-.79,7.5-.85,46.6-.14,54.61,1.53.17,3.14.52,4.75.52,25.16.03,50.33.02,75.49.02h8.65c.3,1.4.73,2.46.73,3.51.04,21.2.03,42.41.01,63.61,0,.79-.26,1.58-.48,2.83-3.07.62-6.15.23-9.17.31-2.83.07-5.65.02-8.48.02h-53.44c-3.11,0-6.22-.03-9.33,0-2.78.03-5.57-.19-7.76.11-.75.66-1.03.81-1.16,1.04-.13.23-.14.54-.16.83-.06.56-.09,1.12-.13,1.69-.02.28,0,.57,0,.85,0,.57,0,1.13,0,1.7,0,38.45,0,76.9,0,115.35,0,.28,0,.57,0,.85,0,.28-.02.57-.04.85-.02.28,0,.58-.09.83-.1.25-.34.45-.51.67-.47.24-.95.69-1.42.69-23.18.07-46.36.1-69.54.11-.78,0-1.56-.29-2.18-.42-.35-.75-.77-1.23-.77-1.71-.02-106.02,0-212.04.03-318.06,0-.49.4-.98.62-1.46,7.37-1.05,154.47-1.48,180.05-.5.24,1.18.73,2.48.74,3.77.05,21.2.04,42.41.01,63.61,0,1.06-.29,2.12-.51,3.58-11.82.39-23.36.14-34.89.18-11.87.05-23.75.01-35.62.01s-23.11,0-35.23,0Z"/>
      <path class="cls-1" d="M1092.93,4.06v70.03c-1.43,1.96-3.27,1.32-4.85,1.32-18.94.05-37.87.03-56.81.03-2.8,0-5.59,0-7.83,0-1.99,1.27-1.79,2.74-1.8,4.12-.03,2.26,0,4.52,0,6.78,0,76.88,0,153.76,0,230.64,0,2.79,0,5.58,0,8.74-1.35.29-2.38.7-3.4.7-22.61.03-45.22.03-67.83,0-.79,0-1.59-.27-2.73-.47-.95-3.01-.44-6.12-.44-9.14-.04-77.16-.03-154.32-.04-231.49,0-3.05-.15-6.09-.24-9.53-4.29-.66-8.21-.28-12.1-.35-3.96-.07-7.91-.02-11.87-.02h-22.89c-3.96,0-7.91.02-11.87,0-3.9-.02-7.8-.08-11.4-.12-.54-.94-1.03-1.4-1.04-1.87-.61-17.42-.29-61.8.45-68.52.22-.17.43-.38.67-.52.23-.13.5-.28.75-.28,69.81-.03,139.63-.05,209.44-.07,1.66,0,3.32,0,5.84,0Z"/>
      <path class="cls-1" d="M1109.06,4.45c10.83-.71,66.3-.53,73.29.19.21.19.48.34.61.57.13.23.16.55.16.83.05,105.7.09,211.39.11,317.09,0,.8-.21,1.6-.3,2.26-.36.34-.54.57-.77.72-.22.14-.49.26-.75.26-23.17.04-46.35.07-69.52.07-.81,0-1.61-.27-2.29-.39-.29-.36-.49-.56-.63-.8-.13-.23-.29-.5-.29-.75-.03-105.7-.05-211.4-.06-317.1,0-.81.23-1.61.44-2.96Z"/>
      <path class="cls-1" d="M2920.47,325.77c-7.41.84-60.53,1.09-73.64.38-.22-1.2-.67-2.5-.68-3.8-.06-9.04-.03-18.09-.03-27.13V4.93c1.14-.32,2.15-.84,3.17-.84,23.17-.03,46.35,0,69.52.02.25,0,.5.18.75.28,1.45.93,1.15,2.42,1.18,3.78.04,1.98.01,3.96.01,5.93,0,100.89,0,201.79-.02,302.68,0,3.02.35,6.1-.27,8.98Z"/>
      <path class="cls-1" d="M1328.5,1766.6c12,15.32,22.76,31.52,34.54,46.61.62.05.97.16,1.03.07.15-.22.22-.53.22-.81.07-14.7.13-29.4.2-44.1,0-.24.19-.49.5-1.21,2.93-1.14,6.31-.42,9.59-.54,3.07-.12,6.15-.03,8.82-.03.57.7.78.91.92,1.15.14.23.33.48.33.73.04,24.88.06,49.76.06,74.64,0,.8-.27,1.6-.37,2.18-.39.39-.57.64-.8.77-.23.13-.53.18-.8.18-6.21,0-12.42,0-19.11,0-1.25-1.52-2.76-3.16-4.05-4.95-8.94-12.34-17.81-24.73-26.76-37.06-1.29-1.77-2.89-3.31-5.01-5.71-.54,4.86-.27,8.7-.32,12.52-.05,3.96-.01,7.92-.01,11.88,0,3.68.05,7.35-.01,11.03-.07,3.89.32,7.81-.25,11.44-.92.44-1.41.88-1.89.88-5.65.05-11.3.03-17.39.03-.28-1.37-.76-2.67-.77-3.96-.04-24.03-.03-48.07-.02-72.1,0-.82.15-1.64.21-2.25,1.06-1.65,2.55-1.38,3.91-1.38,5.64-.03,11.27-.01,17.24-.01Z"/>
      <path class="cls-1" d="M2278.8,1846.12h-20.33c-11.93-15.28-22.7-31.43-35.06-47.56-.82,8.55-.36,16.13-.44,23.69-.08,7.62-.02,15.24-.02,23.3-1.43.28-2.72.74-4.02.76-5.05.09-10.11.04-15.54.04-.3-1.28-.74-2.29-.75-3.31-.03-24.59-.02-49.18,0-73.76,0-.53.21-1.06.32-1.59,4.79-1.37,9.94-1.53,21.2-.6,5.44,7.47,10.88,15.35,16.76,22.89,5.82,7.47,10.53,15.83,18.1,23.59v-45.74c2.44-1.91,4.78-1.03,6.93-1.2,1.97-.15,3.95-.04,5.93-.03,2.2.01,4.41.04,6.1.05.7.7.94.87,1.09,1.1.13.22.22.51.22.77.03,24.87.06,49.74.06,74.61,0,.8-.28,1.6-.54,2.99Z"/>
      <path class="cls-1" d="M1139.44,1787.81c-5.28,3.43-10.53,6.03-16.24,8.34-1.82-1.87-3.44-3.81-5.32-5.44-11.44-9.93-28.93-5.15-33.7,7.93-5.36,14.66,5.01,28.03,17.68,28.07,5.85.02,11.23-.89,15.88-4.57,1.05-.83,1.83-2,2.75-3.03-.69-.65-1.04-1.27-1.4-1.28-4.79-.06-9.58-.04-14.75-.04-.33-1.61-.78-2.9-.82-4.2-.11-3.37-.04-6.74-.04-10.48,1.19-.32,2.2-.81,3.21-.82,11.59-.05,23.18-.04,34.77,0,.77,0,1.55.39,2.49.64,1.53,10.44-1.34,19.55-7.43,27.77-6.16,8.31-14.57,13.71-24.51,15.47-23.94,4.23-41.47-9.26-47.46-28.68-6.41-20.78,6.15-41.98,24.14-49.12,22.42-8.9,44.47,4.4,50.75,19.45Z"/>
      <path class="cls-1" d="M1767.21,1805.91c1.25,22.78-19.3,40.84-40.32,41.08-20.98.24-41.36-17.13-41.2-40.47.16-23.12,16.77-40.54,40.6-41.01,24.34-.48,41.81,19.97,40.92,40.4ZM1726.34,1826.67c12.4.58,20.94-8.42,21.41-20.01.47-11.48-8.99-20.88-20.55-21.19-14.03-.38-22.09,11.45-21.74,20.73.46,12.02,8.55,20.38,20.87,20.46Z"/>
      <path class="cls-1" d="M2383.15,1805.91c1.24,22.8-19.31,40.83-40.32,41.08-20.99.24-41.37-17.14-41.2-40.47.16-23.12,16.77-40.54,40.6-41.01,24.33-.48,41.8,19.95,40.92,40.4ZM2342.13,1826.67c12.4.62,20.98-8.18,21.56-19.85.57-11.47-8.87-21.06-20.39-21.32-12.43-.28-21.7,8.47-21.77,20.55-.07,12.11,8.3,20.49,20.6,20.62Z"/>
      <path class="cls-1" d="M1650.06,1815.07c7.3,10.43,14.23,20.35,21.5,30.73-4.17.94-7.75.45-11.28.54-3.38.08-6.76.02-10.39.02-1.24-1.56-2.56-2.99-3.6-4.61-4.73-7.34-9.35-14.75-14.07-22.1-1.4-2.19-3.27-2.96-6.05-.97v26.76c-3.59,1.55-6.99.75-10.28.89-3.06.13-6.13.03-8.65.03-.73-.72-.97-.89-1.12-1.13-.14-.22-.24-.51-.24-.77-.04-24.85-.08-49.71-.1-74.56,0-.8.23-1.59.42-2.82,1.1-.17,2.14-.46,3.19-.46,10.45-.03,20.93.44,31.35-.14,12.93-.71,24.64,10.99,24.49,24.66-.12,11.06-4.62,18.91-15.16,23.92ZM1626.09,1784.24c0,4.74-.06,8.64.03,12.54.03,1.3.44,2.59.71,4.07,4.01,0,7.64.16,11.26-.04,4.55-.25,7.73-3.67,7.93-8.15.18-4.01-3.4-8.39-7.52-8.67-3.84-.26-7.74-.39-12.41.25Z"/>
      <path class="cls-1" d="M888.16,1766.65c3.34-.02,6.39-.06,9.44-.04,7.62.05,15.25-.11,22.85.27,6.02.3,11.56,2.73,16.36,6.23,11.11,8.09,17.49,18.76,17.4,32.96-.1,15.12-6.76,26.44-19.23,34.49-5.78,3.73-12.41,5.43-19.2,5.69-8.99.34-18,.08-27.38.08-.31-1.24-.77-2.25-.77-3.27-.02-24.84.01-49.68.04-74.52,0-.26.13-.52.48-1.89ZM908.09,1828.19c2.92,0,4.87-.08,6.82.01,5.84.28,10.42-2.21,13.97-6.6,6.06-7.49,6.34-15.97,3.5-24.72-2.06-6.34-6.62-10.33-12.95-12.31-1.06-.33-2.18-.55-3.29-.61-2.48-.12-4.98-.22-6.71,0-.85.79-1.23.97-1.23,1.16-.1,12.69-.18,25.37-.25,38.06,0,1.36.08,2.72.14,4.98Z"/>
      <path class="cls-1" d="M1213.39,1767.12c1.62-.26,2.42-.49,3.21-.5,5.35-.03,10.7-.02,16.46-.02.24,1.85.63,3.44.63,5.04.05,13.26.03,26.53.03,39.79,0,1.41-.02,2.82,0,4.23.18,8.02,5.38,13.61,12.83,13.73,6.85.11,13.87-4.5,14.31-13.53.08-1.69.02-3.39.02-5.08,0-13.26,0-26.53,0-39.79,0-1.1.1-2.2.18-3.76,6.43-1.3,12.8-.44,19.56-.47.22,1.49.57,2.81.58,4.13.04,15.8-.06,31.61.06,47.41.08,9.94-4.37,17.36-12.41,22.63-13.11,8.59-33.95,7.93-46.14-1.8-5.51-4.4-9.26-9.93-9.29-17.25-.08-18.04-.03-36.08-.03-54.76Z"/>
      <path class="cls-1" d="M2186.02,1845.89c-7.07.98-13.76.16-20.67.57-1.66-4.68-3.14-8.86-4.75-13.41-2.71-.42-5.42-1.11-8.15-1.21-5.36-.19-10.72-.1-16.09-.04-2.98.04-3.71.66-4.71,3.73-1.12,3.44-2.18,6.9-3.29,10.47-7.06.53-13.74.6-20.66-.04,0-1.13-.22-2.01.03-2.71,9.04-25.37,18.12-50.72,27.28-76.27,7.62-.83,14.91-.11,22.48-.43.79,1.54,1.7,2.93,2.25,4.46,8.47,23.5,16.9,47.02,25.3,70.55.45,1.27.61,2.64.98,4.33ZM2155.44,1815.26c-2.67-8.32-5.19-16.23-7.79-24.11-.11-.32-.92-.41-1.72-.73-2.63,8.14-5.58,16.14-7.7,24.86,5.84.88,11.26.88,17.22-.02Z"/>
      <path class="cls-1" d="M1582.46,1846.37c-16.19-.16-31.93.2-47.57-.24-1.08-7.39-1.12-70.97-.11-78.8,7.28-.99,40.48-1.02,48-.01.17.71.52,1.49.52,2.27.02,4.47-.04,8.93-.07,13.76-3.35.96-6.44.41-9.45.51-3.1.1-6.21,0-9.32.03-3.05.03-6.12-.14-9.04.13-1.6,2.43-.83,4.74-.97,6.9-.13,1.92.02,3.85.04,6.12,4.23.97,8.15.4,12,.51,3.64.1,7.28.02,10.79.02,1.63,5.39,1.71,10.25.36,17.72-2.35.71-4.89.29-7.37.36-2.54.07-5.08,0-7.62.02-2.48.02-4.98-.12-7.82.25-.66,4.14-.64,7.91,0,12.16,4.85.05,9.3.11,13.75.13,4.5.02,9,0,13.96,0,1.16,6.18,1.29,12.07-.09,18.17Z"/>
      <path class="cls-1" d="M2024.25,1828.95v16.36c-5.79,1.32-35.76,1.6-48.03.51-.22-.18-.5-.32-.64-.55-.14-.22-.19-.53-.19-.8-.06-24.28-.11-48.55-.16-72.83,0-1.36,0-2.73,0-3.97,5.89-1.33,36.08-1.65,48.8-.57.99,5.13.27,10.39.41,15.16-1.25,1.91-2.75,1.6-4.1,1.61-7.87.03-15.74.01-23.29.01-2.26,2.21-1.26,4.59-1.44,6.73-.16,1.93-.03,3.89-.03,6.3,1.54.25,2.84.62,4.14.64,5.08.07,10.16.02,15.24.04,1.35,0,2.69.12,4.45.21.13,1.8.33,3.14.29,4.48-.1,4.18.38,8.4-.36,12.87-4.02,1.01-7.95.39-11.82.5-3.63.11-7.27.02-11.11.02-1.52,4.1-.65,7.9-.72,11.14,1.59,1.85,3.09,1.37,4.42,1.38,6.78.05,13.55-.01,20.33.06,1.3.01,2.59.47,3.8.7Z"/>
      <path class="cls-1" d="M1842.65,1818.84c1.31,1.56,2.31,2.87,3.43,4.07,4.24,4.53,9.61,5.55,15.5,4.82.27-.03.54-.15.8-.25,1.96-.75,3.53-2.12,4-4.09.49-2.08-.76-4.03-2.37-5.09-2.32-1.53-4.95-2.66-7.56-3.68-3.4-1.32-6.93-2.32-10.36-3.56-1.84-.67-3.72-1.37-5.39-2.37-16.64-10-12.27-32.6.51-39.26,11.59-6.04,22.78-5.13,33.68,1.47,2.58,1.56,5.36,3.14,7.17,6.44-1.08,1.19-2.09,2.47-3.28,3.56-3.09,2.85-5.67,6.28-9.53,8.58-2.16-1.42-4.27-2.77-6.35-4.17-2.49-1.68-5.25-1.82-8.12-1.68-2.42.12-3.37,1.77-4.22,3.6-.87,1.87.03,3.48,1.36,4.48,2,1.49,4.21,2.83,6.53,3.73,3.92,1.52,8.1,2.4,11.99,4,8.63,3.53,14.36,9.62,16.21,19.08,1.32,6.75-1.38,17.59-9.44,22.93-14.98,9.93-38.93,6.12-49.29-10.46-.28-.45-.25-1.08-.45-2.06,4.11-4.43,9.88-6.65,15.2-10.09Z"/>
      <path class="cls-1" d="M1456.06,1767.48c1.3-.47,1.79-.81,2.29-.81,11-.04,22.01-.19,33.01-.02,13.57.21,24.1,10.77,23.93,24.35-.17,13.26-9.75,23.37-21.63,23.66-5.33.13-10.66.02-15.22.02-2.23,1.37-2.07,2.83-2.08,4.21,0,8.74,0,17.48,0,26.65-1.43.29-2.72.74-4.01.76-5.05.09-10.1.04-15.21.04-.44-.98-1.04-1.71-1.04-2.43-.05-25.38-.04-50.75-.04-76.44ZM1476.62,1798.85c3.97,0,7.03.14,10.07-.06,1.62-.1,3.25-.66,4.8-1.23,2.66-.98,3.83-3.04,3.95-5.84.17-4-1.27-6.43-6.32-7.5-3.98-.84-8.22-.78-12.5.16v14.47Z"/>
      <path class="cls-1" d="M2048.25,1767.27c7.81-.82,35.2-1.02,48.01-.43,1.58,4.43,1.67,7.33.42,16.74-2.89.62-5.97.21-9.01.28-3.1.08-6.21-.04-9.32.03-3.04.07-6.12-.31-9.58.35-.09,1.97-.21,3.59-.23,5.21-.02,2.48-.1,4.97.2,7.63,2.88.78,5.4.41,7.87.47,2.54.06,5.08.01,7.62.01h7.71c1.23,3.09.62,5.92.71,8.65.09,2.8.02,5.61.02,8.79-1.65.25-2.97.61-4.29.63-6.2.06-12.41.03-19.01.03-.3,1.4-.79,2.7-.8,4-.07,8.47-.04,16.94-.04,25.84-1.38.3-2.66.79-3.95.82-5.06.09-10.11.04-15.24.04-.44-.94-1.06-1.65-1.06-2.37-.05-25.4-.04-50.79-.04-76.7Z"/>
      <path class="cls-1" d="M1938.53,1783.88c-.38,5.8-.17,10.84-.2,15.87-.04,5.09,0,10.18,0,15.27v30.85c-6.56.9-12.67.51-18.48.27-2.13-1.71-1.73-3.78-1.73-5.72-.02-16.12,0-32.24-.02-48.35,0-2.48-.16-4.95-.26-7.83-6.21-.75-12.1.01-18.06-.56-1.39-2.84-.64-5.69-.77-8.41-.11-2.51-.02-5.03-.02-7.61,1.01-.41,1.74-.96,2.47-.96,18.1-.05,36.19-.05,54.29-.03.53,0,1.05.28,2.11.59.88,5.04.23,10.3.39,15.83-3.21,1.4-6.33.64-9.32.78-3.1.14-6.21.03-10.38.03Z"/>
      <path class="cls-1" d="M997.34,1846.35c-5.92,0-11.25.02-16.59-.02-.79,0-1.59-.25-2.06-.33-.49-.45-.76-.6-.89-.83-.13-.24-.15-.55-.15-.82-.04-24.82-.09-49.64-.11-74.45,0-.8.22-1.6.39-2.82,3.27-.88,6.62-.41,9.91-.46,3.06-.05,6.11.09,8.83.15.5.61.71.81.85,1.05.13.23.28.5.28.75.03,24.82.05,49.64.05,74.46,0,.8-.24,1.61-.51,3.33Z"/>
      <path class="cls-1" d="M1187.68,1766.75v78.98c-6.39,1.31-12.74.29-18.49.63-.79-.65-1.06-.8-1.21-1.02-.15-.21-.22-.5-.24-.77-.08-.84-.16-1.68-.16-2.53,0-24.79,0-49.58,0-74.81,6.63-1.29,12.99-.47,20.12-.49Z"/>
      <path class="cls-1" d="M1409.25,1766.71c6.64-.21,12.77-.1,19.26-.08.28,1.2.72,2.22.73,3.24.04,24.26.04,48.51.01,72.77,0,1.05-.27,2.1-.38,2.91-.95.37-1.45.73-1.95.74-5.62.04-11.24.03-17.32.03-.25-1.5-.66-2.8-.66-4.1-.04-23.97-.03-47.95-.01-71.92,0-.82.14-1.64.31-3.58Z"/>
    </g>
  </g>
</svg>